<?xml version="1.0" standalone="no"?><!DOCTYPE svg PUBLIC "-//W3C//DTD SVG 1.1//EN" "http://www.w3.org/Graphics/SVG/1.1/DTD/svg11.dtd"><svg t="1638201723239" class="icon" viewBox="0 0 1024 1024" version="1.1" xmlns="http://www.w3.org/2000/svg" p-id="14961" xmlns:xlink="http://www.w3.org/1999/xlink" width="200" height="200"><defs><style type="text/css"></style></defs><path d="M533.333333 85.333333a21.333333 21.333333 0 0 0-21.333333 21.333334v503.166666L377.753333 475.58a21.333333 21.333333 0 0 0-30.173333 30.173333l170.666667 170.666667a21.333333 21.333333 0 0 0 30.173333 0l170.666667-170.666667a21.333333 21.333333 0 1 0-30.173334-30.173333L554.666667 609.833333V106.666667a21.333333 21.333333 0 0 0-21.333334-21.333334z m394.666667 298.666667h-138.666667a21.333333 21.333333 0 0 0 0 42.666667h138.666667a10.666667 10.666667 0 0 1 10.666667 10.666666v448a10.666667 10.666667 0 0 1-10.666667 10.666667H138.666667a10.666667 10.666667 0 0 1-10.666667-10.666667V437.333333a10.666667 10.666667 0 0 1 10.666667-10.666666h138.666666a21.333333 21.333333 0 0 0 0-42.666667H138.666667a53.393333 53.393333 0 0 0-53.333334 53.333333v448a53.393333 53.393333 0 0 0 53.333334 53.333334h789.333333a53.393333 53.393333 0 0 0 53.333333-53.333334V437.333333a53.393333 53.393333 0 0 0-53.333333-53.333333z" fill="#8a8a8a" p-id="14962"></path></svg>