<?xml version="1.0" standalone="no"?><!DOCTYPE svg PUBLIC "-//W3C//DTD SVG 1.1//EN" "http://www.w3.org/Graphics/SVG/1.1/DTD/svg11.dtd"><svg t="1638201852198" class="icon" viewBox="0 0 1024 1024" version="1.1" xmlns="http://www.w3.org/2000/svg" p-id="19383" xmlns:xlink="http://www.w3.org/1999/xlink" width="200" height="200"><defs><style type="text/css"></style></defs><path d="M958.203854 1023.866918H65.590221A65.637783 65.637783 0 0 1 0.072874 958.229135V431.561198c0-36.191108 29.386457-65.637783 65.517347-65.637783H206.621128L180.727323 421.745639H60.291024v541.963347h903.272245V421.745639h-120.436299l-27.098168-55.822224h142.175052c36.13089 0 65.517347 29.446675 65.517346 65.577565v526.728155a65.637783 65.637783 0 0 1-65.517346 65.637783zM659.88314 230.673451L542.036221 120.654891v602.181497H481.818072V120.654891L362.586135 230.673451a36.733071 36.733071 0 0 1-59.134223-11.501667 34.806091 34.806091 0 0 1 7.888578-38.539616L485.611815 10.455677a36.733071 36.733071 0 0 1 51.245645 0l174.271325 170.176491a34.806091 34.806091 0 0 1 0 50.041283 36.913726 36.913726 0 0 1-51.245645 0z" p-id="19384" fill="#8a8a8a"></path></svg>